<?xml version="1.0" encoding="UTF-8"?>
<svg id="Layer_1" xmlns="http://www.w3.org/2000/svg" version="1.1" viewBox="0 0 544.23 900">
  <!-- Generator: Adobe Illustrator 30.4.0, SVG Export Plug-In . SVG Version: 2.1.4 Build 226)  -->
  <defs>
    <style>
      .st0 {
        fill: #a72024;
      }

      .st1 {
        fill: #4e2428;
      }

      .st2 {
        fill: #fff;
      }
    </style>
  </defs>
  <path class="st0" d="M531.25,388.43l-25.53-15.56-26.08-5.42-23.7-6.98-5.87-27.05c-3.73-7.77-7.42-15.45-11.12-23.15l-2.17-4.59-27.38-16.28-35.8,1.45,8.6-31.62c3.07-11.58,7.66-23.28,11.19-34.23l15.63-25.15,9.51-25.1,24.85,19.28,34.57,8.31,10.77-23.07,2.21-4.73-16.48-25.24-25.81-16.11c-9.13-14.55-20.29-31.65-30.56-46.08l-9.6-22.96-5.89-24.7-10.73-24.82L372.32,0l-14.63,35.83,4.78,64.32,4.19,7.67,9.61,17.58-12.35,27.45-15.5,29.21-11.88,28.33-15.47,48.25-16.02-13.38-24.03-17.68-30.84-7.84-32.93,3.77-24.64,30.48-.9-1.57-7.85-14.61-29.88-21.04-35.51-8.91-35.5,6.02-26.03,12.09-24.81,17.02-.99,2.05c-8.7,17.56-15.74,32.33-24.23,51.44l-.66,30.02,3.62,18.19,2.27,11.19,14.9,24.5,25.58,12.29,11.76,6.26,3.64,1.91.75.33-.93.76-7.91,5.54-16.03,11.24-28.84,25.4-11.82,32.37L0,509.69l.37,33.71,14.8,26.91,19.18,23.48,23.01,14.89-6.83,13.01c-2.76,5.4-5.8,10.66-8.22,16.22l-11.1,24.01,2.09,32.98,13.07,32.21,25.58,24.17,25.56,8.67c-3.91,9.7-7.82,19.41-11.75,29.18,1.45,12.98,2.92,26.01,4.4,39.24l6.72,9.1,12.97,17.61c10.32,7.68,20.34,15.13,30.77,22.89,6.89,5.12,13.66,10.14,20.38,15.13,11.08,2.32,22.02,4.62,32.96,6.91l30.75-10.92,27.07-16.6,18.59-21.26,10.6-26.1,1.67-25.33,1.87-.13c30.67-1.39,47.91-2.93,46.2-4.12h.26l6.8-.72c.81.12,1.56.37,2.44.3l19.83-1.45c7.46-6.49,14.87-12.93,22.22-19.32,6.69-7.23,13.34-14.42,19.95-21.56,2.36-9.53,4.7-19,7.04-28.46l-3.97-34.31-4.16-21.01-2.25-11.01,31.56-10.63,32.25-16.98,4.39-8.03,9.44-17.24,1.49-27.27-9.74-55.7,19.19-14.01,22.05-12.9,20.58-22.83,10.78-28.25,3.39-29.09-12.98-26.62-.03-.03Z"/>
  <g>
    <path class="st1" d="M178.31,528.81c15.8,17.02,32.61,23.24,56.11,20.4,8.34-1.01,15.91-2.2,22.56-8.11l9.9-8.79c7.17-6.37,11.4-19.53,13.45-29.99,10.64-3.3,6.76-9.63,13.06-16.47,8.33-3.39,16.63-2.56,25.35-2.62l13.41-.08,15.39-1.74c1.5-.17,4.09-2.06,4.45-3.45.51-1.96-1.32-4.73-3.3-5.5l-13.56-5.25-10.8-3.82-15.35-3.27c-3.29-.7-8.32.7-11.6-1.42l2.18-29.09c.74-9.83-4.51-17.98-12.55-23.52-1.68-1.16-4.85-5.3-3.83-7,8.5-9.72,17.61-18.2,24.43-28.79l7.69-11.94c.94-1.46.56-5.41-.51-6.73s-5.62-1.81-6.88-.66l-16.52,15.01c-2.49,2.27-6.58,4.01-8.44,7.12-4.03,6.74-7.94,11.56-13.61,17.28l-10.48-4.85c-4.71-2.18-10.7-3.97-15.14-6.65l-23.7-14.25c-5.69-3.42-9.38-11.77-11.34-17.98l-3.43-10.85-9.15-26.53c-.61-1.77-4.23-3.59-6-3.65-1.91-.06-4.79,3.64-4.73,5.88l.36,12.89,2.13,17.52,3.11,21.76c1,6.99,3.38,13.65,2.65,21.21l-29.16,12.49c-3.96.57-10.06-2.82-13.23-4.33-5.74-2.74-7.67-6.09-10.75-10.9l-14.45-22.53c-8.11-12.65-28.78-33.23-30.87-22.74-.38,1.9.24,3.87,1.26,6.09,6.83,14.93,14.76,28.31,23.57,42.14l6.99,15.75c4.36,9.83,5.3,19,2.06,29.54l-3.83,12.46c-.84,2.74-1.76,8.26-3.9,10.06l-10,8.4-26.98-8.59-9.03-3.53c-1.34-.52-4.59,1.44-4.72,2.74-.14,1.3,1.39,3.96,2.67,4.37,10.66,3.39,19.37,8.1,29.05,13.1,4.99,2.58,8.82,4.64,11.92,9.61l8.75,14.04c2.16,3.47,5.35,7.52,6.56,11.64-.17,2.41-2.75,7.03-4.56,8.72-11.31,4.93-21.21,11-30.22,19.43-1.31,1.23-.95,5.8.25,7.05,1.23,1.29,5.07,1.31,6.69.09,5.15-3.87,10.06-5.19,16.01-6.65l28.89-7.08,18.31,2.08,13.42.48h-.01ZM164.38,453.05l-4.41,12.57c-2.96,8.43-.63,30.36,2.82,37.95l4.61,10.12c-3.82-.35-7.86-2.64-11.07-5.47l-11.18-9.84c-7-6.16-12.31-13.37-12.33-23.21-.02-7.84.26-16.03,2.85-23.79,2.86-8.57,6-17.66,11.14-25.49,4.47-6.82,11.9-14.52,19.1-18l33.44-16.17c8.04-3.89,21.53-5.5,30.87-3.12,6.19,1.58,11.51,5.85,17.29,8.26,6.53,2.73,12.57,5.08,17.33,10.8,6.79,8.16,13.1,16.79,17.95,26.52,1.6,3.21,1.55,9.42,1.52,12.76l-.06,9.06-.75,23.65c-.07,2.32-.64,4.49-2.66,5.63l-3.16-15.68-4.4-11.98-6.45-10.94c-10.35-14.2-26.69-23.87-43.87-26.26-11.64-1.62-21.22,1.45-30.92,5.98-9.46,4.42-16.97,9.22-22.94,18.05-1.67,2.46-3.54,5.2-4.74,8.6h.02Z"/>
    <path class="st2" d="M164.38,453.05c1.19-3.4,3.07-6.13,4.74-8.6,5.97-8.83,13.48-13.63,22.94-18.05,9.7-4.53,19.28-7.6,30.92-5.98,17.18,2.4,33.52,12.06,43.87,26.26l6.45,10.94,4.4,11.98,3.16,15.68c2.02-1.14,2.58-3.32,2.66-5.63l.75-23.65.06-9.06c.02-3.34.08-9.55-1.52-12.76-4.86-9.73-11.17-18.36-17.95-26.52-4.76-5.72-10.79-8.07-17.33-10.8-5.78-2.42-11.1-6.68-17.29-8.26-9.34-2.38-22.83-.77-30.87,3.12l-33.44,16.17c-7.2,3.48-14.63,11.18-19.1,18-5.14,7.83-8.27,16.93-11.14,25.49-2.59,7.76-2.87,15.96-2.85,23.79.03,9.84,5.33,17.05,12.33,23.21l11.18,9.84c3.21,2.82,7.25,5.11,11.07,5.47l-4.61-10.12c-3.46-7.59-5.78-29.52-2.82-37.95l4.41-12.57h-.02Z"/>
  </g>
</svg>